<svg width="140" height="33" viewBox="0 0 140 33" fill="none" xmlns="http://www.w3.org/2000/svg">
<path d="M45.9027 4.29126C45.9242 4.73162 45.8558 5.17175 45.7018 5.58484C45.5477 5.99793 45.3111 6.37533 45.0064 6.69403C44.6657 7.04707 44.2542 7.32421 43.799 7.50734C43.3437 7.69046 42.855 7.77543 42.3647 7.75671C41.3675 7.75671 40.4111 7.36057 39.706 6.65545C39.0009 5.95032 38.6047 4.99397 38.6047 3.99678C38.6047 2.99958 39.0009 2.04322 39.706 1.3381C40.4111 0.632974 41.3675 0.236841 42.3647 0.236841C42.8724 0.236297 43.3749 0.339403 43.8413 0.539852C44.2745 0.715478 44.6604 0.990294 44.968 1.3422L44.3321 1.9781C44.0921 1.69394 43.7896 1.46906 43.4483 1.321C43.107 1.17295 42.7362 1.10571 42.3647 1.12454C41.8951 1.12942 41.4339 1.2492 41.0212 1.47341C40.6086 1.69761 40.2572 2.01944 39.9976 2.41076C39.738 2.80209 39.5781 3.25102 39.532 3.71835C39.4859 4.18568 39.5549 4.6572 39.7329 5.09172C39.911 5.52625 40.1928 5.91056 40.5536 6.21111C40.9144 6.51166 41.3434 6.71929 41.8029 6.81588C42.2625 6.91247 42.7387 6.89508 43.19 6.76522C43.6413 6.63537 44.0539 6.397 44.3919 6.07093C44.759 5.67103 44.9722 5.15379 44.9936 4.61134H42.3817V3.75778H45.8685C45.8952 3.93429 45.9067 4.11278 45.9027 4.29126Z" fill="white" stroke="white" stroke-width="0.2" stroke-miterlimit="10"/>
<path d="M51.4338 1.28244H48.1518V3.56572H51.1094V4.41928H48.1518V6.70256H51.4338V7.58599H47.23V0.399006H51.4338V1.28244Z" fill="white" stroke="white" stroke-width="0.2" stroke-miterlimit="10"/>
<path d="M55.3344 7.5988H54.4083V1.28244H52.3982V0.399006H57.3446V1.28244H55.3344V7.5988Z" fill="white" stroke="white" stroke-width="0.2" stroke-miterlimit="10"/>
<path d="M60.9253 7.5988V0.399006H61.8471V7.5988H60.9253Z" fill="white" stroke="white" stroke-width="0.2" stroke-miterlimit="10"/>
<path d="M65.9529 7.5988H65.0267V1.28244H63.0166V0.399006H67.963V1.28244H65.9529V7.5988Z" fill="white" stroke="white" stroke-width="0.2" stroke-miterlimit="10"/>
<path d="M77.3307 6.66847C76.6288 7.36511 75.68 7.75603 74.6911 7.75603C73.7022 7.75603 72.7533 7.36511 72.0514 6.66847C71.3689 5.94724 70.9885 4.99196 70.9885 3.99896C70.9885 3.00596 71.3689 2.05068 72.0514 1.32945C72.3975 0.982589 72.8086 0.707397 73.2612 0.519633C73.7138 0.331868 74.199 0.235214 74.6889 0.235214C75.1789 0.235214 75.6641 0.331868 76.1167 0.519633C76.5693 0.707397 76.9804 0.982589 77.3265 1.32945C78.0078 2.05046 78.3874 3.00484 78.3874 3.99683C78.3874 4.98881 78.0078 5.9432 77.3265 6.66421L77.3307 6.66847ZM72.7343 6.06671C73.2534 6.58377 73.9563 6.87408 74.6889 6.87408C75.4216 6.87408 76.1245 6.58377 76.6436 6.06671C77.16 5.5019 77.4464 4.76428 77.4464 3.99896C77.4464 3.23364 77.16 2.49602 76.6436 1.93121C76.1245 1.41415 75.4216 1.12384 74.6889 1.12384C73.9563 1.12384 73.2534 1.41415 72.7343 1.93121C72.2206 2.49736 71.936 3.23447 71.936 3.99896C71.936 4.76344 72.2206 5.50056 72.7343 6.06671Z" fill="white" stroke="white" stroke-width="0.2" stroke-miterlimit="10"/>
<path d="M79.6866 7.5988V0.399006H80.8133L84.3129 5.99837H84.3556L84.3129 4.61133V0.399006H85.239V7.5988H84.2745L80.6127 1.72629H80.5743L80.6127 3.11333V7.5988H79.6866Z" fill="white" stroke="white" stroke-width="0.2" stroke-miterlimit="10"/>
<path d="M70.7626 18.0976C69.7497 18.0976 68.7596 18.398 67.9173 18.9607C67.0751 19.5235 66.4187 20.3233 66.0311 21.2591C65.6435 22.1949 65.5421 23.2247 65.7397 24.2181C65.9373 25.2116 66.425 26.1241 67.1413 26.8404C67.8575 27.5566 68.7701 28.0444 69.7635 28.242C70.7569 28.4396 71.7867 28.3382 72.7225 27.9505C73.6583 27.5629 74.4581 26.9065 75.0209 26.0643C75.5836 25.2221 75.884 24.2319 75.884 23.219C75.8961 22.5431 75.772 21.8717 75.5189 21.2449C75.2658 20.618 74.889 20.0486 74.411 19.5706C73.933 19.0926 73.3636 18.7158 72.7368 18.4627C72.1099 18.2097 71.4385 18.0855 70.7626 18.0976ZM70.7626 26.2961C70.1422 26.3398 69.523 26.1958 68.9856 25.8827C68.4481 25.5697 68.0174 25.1022 67.7492 24.541C67.4811 23.9798 67.3881 23.3509 67.4823 22.7362C67.5764 22.1214 67.8534 21.5492 68.2773 21.094C68.7011 20.6388 69.252 20.3217 69.8585 20.1839C70.465 20.0461 71.099 20.094 71.6778 20.3214C72.2567 20.5488 72.7538 20.9452 73.1043 21.4589C73.4549 21.9726 73.6427 22.58 73.6434 23.2019C73.6623 23.5954 73.6023 23.9887 73.4669 24.3587C73.3315 24.7286 73.1234 25.0677 72.855 25.356C72.5865 25.6444 72.2631 25.8761 71.9038 26.0375C71.5445 26.1989 71.1565 26.2869 70.7626 26.2961ZM59.5852 18.0976C58.5723 18.0976 57.5822 18.398 56.74 18.9607C55.8978 19.5235 55.2413 20.3233 54.8537 21.2591C54.4661 22.1949 54.3647 23.2247 54.5623 24.2181C54.7599 25.2116 55.2477 26.1241 55.9639 26.8404C56.6801 27.5566 57.5927 28.0444 58.5861 28.242C59.5796 28.4396 60.6093 28.3382 61.5451 27.9505C62.4809 27.5629 63.2808 26.9065 63.8435 26.0643C64.4062 25.2221 64.7066 24.2319 64.7066 23.219C64.7188 22.5431 64.5946 21.8717 64.3415 21.2449C64.0885 20.618 63.7117 20.0486 63.2337 19.5706C62.7557 19.0926 62.1862 18.7158 61.5594 18.4627C60.9325 18.2097 60.2611 18.0855 59.5852 18.0976ZM59.5852 26.2961C58.9648 26.3398 58.3456 26.1958 57.8082 25.8827C57.2708 25.5697 56.84 25.1022 56.5719 24.541C56.3037 23.9798 56.2107 23.3509 56.3049 22.7362C56.3991 22.1214 56.6761 21.5492 57.0999 21.094C57.5237 20.6388 58.0747 20.3217 58.6812 20.1839C59.2876 20.0461 59.9216 20.094 60.5004 20.3214C61.0793 20.5488 61.5764 20.9452 61.9269 21.4589C62.2775 21.9726 62.4653 22.58 62.466 23.2019C62.4849 23.5954 62.4249 23.9887 62.2895 24.3587C62.1541 24.7286 61.946 25.0677 61.6776 25.356C61.4092 25.6444 61.0858 25.8761 60.7264 26.0375C60.3671 26.1989 59.9791 26.2869 59.5852 26.2961ZM46.291 19.6639V21.832H51.4721C51.3981 22.8465 50.9829 23.8061 50.2942 24.5548C49.7751 25.0846 49.1505 25.4997 48.461 25.7731C47.7714 26.0466 47.0322 26.1724 46.291 26.1424C44.763 26.1424 43.2975 25.5354 42.217 24.4549C41.1365 23.3744 40.5295 21.909 40.5295 20.3809C40.5295 18.8529 41.1365 17.3874 42.217 16.3069C43.2975 15.2264 44.763 14.6194 46.291 14.6194C47.7461 14.6007 49.1496 15.1575 50.1961 16.1686L51.7239 14.6407C51.0095 13.933 50.1609 13.3752 49.228 13C48.295 12.6247 47.2965 12.4396 46.291 12.4556C44.1891 12.4556 42.1733 13.2906 40.687 14.7769C39.2007 16.2632 38.3657 18.279 38.3657 20.3809C38.3657 22.4828 39.2007 24.4987 40.687 25.985C42.1733 27.4712 44.1891 28.3062 46.291 28.3062C48.6511 28.3062 50.4308 27.5338 51.8392 26.0827C53.2476 24.6317 53.7127 22.6429 53.7127 21.0168C53.7174 20.5632 53.6788 20.1102 53.5975 19.6639H46.291ZM100.659 21.3454C100.232 20.2059 98.9515 18.0976 96.2926 18.0976C93.6338 18.0976 91.4785 20.1675 91.4785 23.219C91.4612 23.8916 91.58 24.5607 91.8277 25.1863C92.0755 25.8118 92.4471 26.3808 92.9202 26.8591C93.3934 27.3375 93.9583 27.7152 94.5811 27.9698C95.2039 28.2243 95.8717 28.3504 96.5444 28.3404C97.3879 28.3485 98.22 28.1458 98.9653 27.7508C99.7106 27.3558 100.345 26.781 100.812 26.0784L99.071 24.9176C98.8115 25.3508 98.4435 25.7089 98.0035 25.9566C97.5635 26.2043 97.0665 26.3331 96.5615 26.3302C96.0415 26.3512 95.5272 26.215 95.0856 25.9394C94.6441 25.6638 94.2958 25.2617 94.0862 24.7853L100.915 21.96L100.659 21.3454ZM93.7021 23.0526C93.6761 22.6802 93.7249 22.3064 93.8457 21.9532C93.9666 21.6 94.1569 21.2745 94.4055 20.9961C94.6541 20.7176 94.956 20.4918 95.2933 20.3319C95.6306 20.172 95.9965 20.0813 96.3695 20.0651C96.7563 20.0398 97.1421 20.1287 97.479 20.3206C97.8158 20.5125 98.0889 20.7991 98.2644 21.1449L93.7021 23.0526ZM88.1539 28.0032H90.3945V13.0104H88.1539V28.0032ZM84.4794 19.2457H84.4025C84.062 18.8741 83.6459 18.5798 83.1821 18.3825C82.7183 18.1852 82.2177 18.0895 81.7138 18.1019C79.1531 18.1019 76.8229 20.3468 76.8229 23.2233C76.8144 24.541 77.321 25.8098 78.2347 26.7594C79.1483 27.7089 80.3968 28.264 81.7138 28.3062C82.2194 28.3199 82.7219 28.2231 83.1863 28.0226C83.6507 27.8221 84.0657 27.5227 84.4025 27.1454H84.4794V27.8837C84.4794 29.8341 83.4337 30.8712 81.7522 30.8712C81.1933 30.856 80.6514 30.6751 80.1955 30.3514C79.7396 30.0277 79.3901 29.5758 79.1915 29.0531L77.2369 29.864C77.6053 30.7598 78.2326 31.5254 79.0384 32.0629C79.8443 32.6004 80.7921 32.8854 81.7608 32.8813C84.3897 32.8813 86.6133 31.3321 86.6133 27.5636V18.4092H84.4794V19.2457ZM81.9187 26.3004C80.3695 26.3004 79.0763 25.02 79.0763 23.2275C79.0763 21.4351 80.3567 20.1163 81.9187 20.1163C83.4807 20.1163 84.6415 21.4308 84.6415 23.2275C84.6415 25.0243 83.4337 26.2961 81.9101 26.2961L81.9187 26.3004ZM111.166 13.0104H105.797V28.0117H108.038V22.3142H111.166C113.646 22.3142 116.087 20.5175 116.087 17.6538C116.087 14.7901 113.646 13.0104 111.166 13.0104ZM111.221 20.2401H108.038V15.0846H111.221C111.903 15.0846 112.557 15.3555 113.04 15.8377C113.522 16.3199 113.793 16.974 113.793 17.6559C113.793 18.3379 113.522 18.9919 113.04 19.4741C112.557 19.9564 111.903 20.2273 111.221 20.2273V20.2401ZM125.053 18.072C123.436 18.072 121.754 18.7848 121.059 20.3681L123.048 21.2003C123.246 20.8383 123.545 20.5416 123.909 20.3462C124.272 20.1507 124.685 20.065 125.096 20.0992C126.253 20.0992 127.431 20.7949 127.448 22.0283V22.1819C126.728 21.8014 125.927 21.6036 125.113 21.6058C122.979 21.6058 120.79 22.7794 120.79 24.9816C120.79 26.9875 122.548 28.2806 124.516 28.2806C125.079 28.3139 125.641 28.1957 126.143 27.9383C126.645 27.6809 127.069 27.2936 127.371 26.8168H127.448V27.9733H129.611V22.2203C129.616 19.5572 127.614 18.072 125.053 18.072ZM124.785 26.2918C124.05 26.2918 123.03 25.9291 123.03 25.0115C123.03 23.8549 124.311 23.4111 125.403 23.4111C126.117 23.3905 126.824 23.563 127.448 23.9104C127.368 24.562 127.055 25.1627 126.566 25.6007C126.077 26.0387 125.445 26.2843 124.789 26.2918H124.785ZM137.485 18.4007L134.925 24.9048H134.848L132.185 18.4007H129.774L133.768 27.4911L131.489 32.5484H133.824L139.991 18.4007H137.485ZM117.316 27.9989H119.556V13.0104H117.316V27.9989Z" fill="white"/>
<path d="M1.52179 1.06055C1.1304 1.53215 0.932167 2.13448 0.966971 2.74633V29.2835C0.924877 29.9028 1.12365 30.5145 1.52179 30.9907L1.61141 31.0803L16.4804 16.2113V15.8613L1.61141 0.958122L1.52179 1.06055Z" fill="url(#paint0_linear_1711_7688)"/>
<path d="M21.4353 21.1192L16.4803 16.1729V15.8229L21.4353 10.8765L21.5462 10.9405L27.4187 14.2737C29.096 15.2297 29.096 16.7874 27.4187 17.7391L21.5462 21.0766L21.4353 21.1192Z" fill="url(#paint1_linear_1711_7688)"/>
<path d="M21.5462 21.0681L16.4803 15.9979L1.54297 30.9352C2.09778 31.5242 3.01109 31.5967 4.03963 31.0121L21.5675 21.051" fill="url(#paint2_linear_1711_7688)"/>
<path d="M21.5463 10.9319L4.01839 0.970889C2.98985 0.386199 2.07654 0.458758 1.52173 1.04345L16.4804 15.9808L21.5463 10.9319Z" fill="url(#paint3_linear_1711_7688)"/>
<path opacity="0.2" d="M21.4353 20.9571L4.01839 30.8541C3.04107 31.4047 2.17043 31.3705 1.61135 30.8541L1.52173 30.9437L1.61135 31.0291C2.17043 31.5327 3.04107 31.5711 4.01839 31.0291L21.5463 21.068L21.4353 20.9571Z" fill="white"/>
<path opacity="0.12" d="M1.52174 30.7773C1.12883 30.3065 0.930394 29.7036 0.966925 29.0915V29.2707C0.932121 29.8826 1.13036 30.4849 1.52174 30.9565L1.61136 30.8669L1.52174 30.7773Z" fill="white"/>
<path opacity="0.12" d="M27.4188 17.5556L21.4438 20.9698L21.5548 21.0808L27.4273 17.7434C28.2809 17.2697 28.7077 16.638 28.7077 16.0107C28.6278 16.3507 28.4697 16.6674 28.246 16.9356C28.0222 17.2038 27.739 17.4161 27.4188 17.5556Z" fill="white"/>
<path opacity="0.25" d="M4.01852 1.14595L27.4189 14.4402C27.7386 14.5825 28.0208 14.7974 28.243 15.0678C28.4653 15.3382 28.6215 15.6567 28.6992 15.9979C28.6992 15.3705 28.2725 14.7432 27.4189 14.2652L4.01852 0.970965C2.34127 0.0192445 0.967041 0.808793 0.967041 2.72931V2.90429C0.967041 0.983774 2.34127 0.207029 4.01852 1.14595Z" fill="white"/>
<defs>
<linearGradient id="paint0_linear_1711_7688" x1="15.1617" y1="2.45185" x2="-4.97808" y2="22.5874" gradientUnits="userSpaceOnUse">
<stop stop-color="#00A0FF"/>
<stop offset="0.01" stop-color="#00A1FF"/>
<stop offset="0.26" stop-color="#00BEFF"/>
<stop offset="0.51" stop-color="#00D2FF"/>
<stop offset="0.76" stop-color="#00DFFF"/>
<stop offset="1" stop-color="#00E3FF"/>
</linearGradient>
<linearGradient id="paint1_linear_1711_7688" x1="29.5996" y1="15.9979" x2="0.565712" y2="15.9979" gradientUnits="userSpaceOnUse">
<stop stop-color="#FFE000"/>
<stop offset="0.41" stop-color="#FFBD00"/>
<stop offset="0.78" stop-color="#FFA500"/>
<stop offset="1" stop-color="#FF9C00"/>
</linearGradient>
<linearGradient id="paint2_linear_1711_7688" x1="18.7934" y1="18.7549" x2="-8.51624" y2="46.0603" gradientUnits="userSpaceOnUse">
<stop stop-color="#FF3A44"/>
<stop offset="1" stop-color="#C31162"/>
</linearGradient>
<linearGradient id="paint3_linear_1711_7688" x1="-2.24248" y1="-7.79091" x2="9.95064" y2="4.40647" gradientUnits="userSpaceOnUse">
<stop stop-color="#32A071"/>
<stop offset="0.07" stop-color="#2DA771"/>
<stop offset="0.48" stop-color="#15CF74"/>
<stop offset="0.8" stop-color="#06E775"/>
<stop offset="1" stop-color="#00F076"/>
</linearGradient>
</defs>
</svg>
