<svg width="120" height="36" viewBox="0 0 120 36" fill="none" xmlns="http://www.w3.org/2000/svg">
<path fill-rule="evenodd" clip-rule="evenodd" d="M93.1137 8.20703C93.1137 7.7701 93.1169 7.33526 93.12 6.90146C93.1263 6.03697 93.1325 5.17661 93.1137 4.3121C93.0741 2.89984 91.7486 1.60154 90.3382 1.53242C88.6676 1.44835 87.6551 2.31514 87.1328 4.28035C86.6657 5.2632 86.4236 6.33612 86.4236 7.42244C86.4236 8.50876 86.6657 9.58167 87.1328 10.5645V29.559C87.1064 29.9503 87.1064 30.3428 87.1328 30.7341C87.3044 31.9539 88.085 32.7049 89.1786 33.1962C89.64 33.4015 90.1186 33.3711 90.5944 33.341C90.768 33.33 90.9412 33.319 91.1132 33.3195C91.468 33.3195 91.6735 33.0653 91.8779 32.8126C91.9667 32.7028 92.0553 32.5933 92.1559 32.505C92.8592 31.8829 93.1382 31.1058 93.1326 30.1568C93.1116 26.3792 93.1145 22.6015 93.1174 18.8231V18.8228V18.8225V18.8222V18.822V18.8217C93.1184 17.5072 93.1194 16.1926 93.1194 14.8779C94.1338 12.653 93.9999 10.4282 93.1137 8.20703ZM51.0115 28.6362C50.5002 28.6063 49.9869 28.6119 49.4735 28.6174H49.4733C49.1216 28.6213 48.77 28.6251 48.4189 28.6175C47.4346 28.5932 46.769 27.9338 46.7653 26.9363C46.7565 24.2956 46.7594 21.6549 46.7623 18.976V18.9739V18.9718V18.9697V18.9676V18.9655C46.7638 17.615 46.7653 16.2547 46.7653 14.8797C47.1483 14.8797 47.5105 14.8844 47.8583 14.8889H47.8584H47.8584H47.8585H47.8586H47.8586H47.8586C48.6081 14.8986 49.2907 14.9075 49.9707 14.8667C50.8022 14.8162 51.4999 14.5341 51.9807 13.7253C53.0064 11.9973 51.7205 10.2637 49.9311 10.1759C49.2396 10.1424 48.5456 10.1534 47.842 10.1646C47.4865 10.1703 47.1285 10.1759 46.7672 10.1759C46.7672 9.74544 46.7654 9.333 46.7636 8.93255V8.93137V8.93021V8.92907V8.92794V8.92684C46.7603 8.15649 46.7572 7.43038 46.7672 6.70507C46.7822 5.88686 46.4749 5.12842 45.8036 4.76975C44.8043 4.23735 43.7541 4.02253 42.5605 4.62591C41.4066 5.21809 40.8145 6.00081 40.7749 7.22439C40.7549 7.86273 40.7614 8.50106 40.7681 9.15676C40.7715 9.4912 40.7749 9.83016 40.7749 10.1759C40.5611 10.1759 40.3601 10.1832 40.1685 10.19C39.7753 10.2042 39.4215 10.2169 39.0779 10.1629C38.0937 10.0097 37.6487 10.5365 37.4054 11.3323C36.8153 13.2825 37.1415 14.6948 38.8592 14.6948C39.214 14.6948 39.5473 14.7294 39.8713 14.7629C40.1775 14.7947 40.4753 14.8256 40.7749 14.8256V26.2525V27.6237C40.7749 27.6709 40.7725 27.7335 40.7696 27.8094V27.8095V27.8096V27.8097V27.8098V27.8099C40.7337 28.7411 40.6207 31.6781 43.8992 32.9421C46.2354 33.538 48.5396 33.6464 50.7871 32.5685C51.1202 32.4036 51.3955 32.1432 51.5772 31.8213C51.977 31.1969 51.9719 30.5303 51.9668 29.854C51.9662 29.7775 51.9656 29.701 51.9656 29.6244C51.958 28.9799 51.5734 28.668 51.0115 28.6362ZM15.6006 11.6071C15.6522 11.9344 15.7036 12.2607 15.9895 12.5038C15.8402 12.7585 15.7427 13.0419 15.6452 13.3254C15.4272 13.959 15.2091 14.5931 14.4131 14.908C13.8626 15.1247 13.3535 15.3171 12.7708 15.2667C11.187 15.1359 9.81053 15.6963 8.47369 16.4435C6.90869 17.3197 6.07527 18.6834 6.03379 20.3889C5.97476 22.715 5.98637 25.0411 5.99798 27.3672C6.00269 28.3102 6.0074 29.2532 6.0074 30.1963C6.0074 31.7299 4.90247 33.1142 3.55619 33.3327C2.13261 33.5644 0.903233 32.8004 0.196155 31.3918C0.0167085 31.0363 0.018496 30.7237 0.0204036 30.3901C0.0206007 30.3556 0.020799 30.3209 0.020799 30.2859C0.0114321 27.717 0.012833 25.1481 0.0142339 22.5792C0.015935 19.4599 0.0176361 16.3405 5.79409e-05 13.2211C-0.00748423 11.9135 0.722221 11.0523 1.64802 10.3761C2.29797 9.90258 3.18337 10.0591 3.94254 10.1933L3.94255 10.1933L3.94261 10.1933L3.94264 10.1933C4.00714 10.2047 4.07072 10.2159 4.13317 10.2266C4.58004 10.3032 5.10422 10.7067 5.45305 11.3138C5.88333 12.0633 5.96232 12.8284 6.04427 13.6223C6.07221 13.8929 6.10049 14.1669 6.14315 14.4447C6.74214 12.5575 8.25292 11.7218 9.75468 10.8912C10.1675 10.6628 10.5797 10.4349 10.972 10.1855C11.3247 10.195 11.6808 10.1744 12.0368 10.1537L12.0368 10.1537C12.8016 10.1094 13.5655 10.0651 14.2925 10.32C14.3538 10.3406 14.4191 10.3598 14.4867 10.3797C14.8244 10.4792 15.2164 10.5946 15.4238 10.9682C15.5309 11.1647 15.5658 11.3861 15.6006 11.6071ZM82.9147 10.5514C82.4377 10.1348 80.4258 9.93866 79.9658 10.3459C79.1022 11.1062 78.3065 11.8945 78.314 13.204C78.3461 18.8923 78.3329 24.5806 78.314 30.2688C78.335 30.7641 78.4636 31.249 78.6911 31.6904C79.2473 32.9755 80.3795 33.3259 81.5376 33.6844L81.6797 33.7285C81.8861 33.4303 82.2108 33.3706 82.5415 33.3099C82.9027 33.2435 83.2709 33.1758 83.4993 32.7945C83.5591 32.6947 83.6205 32.5968 83.6814 32.4996C84.0138 31.9692 84.3334 31.4594 84.327 30.7695C84.3064 28.6297 84.3098 26.49 84.3132 24.3502C84.3144 23.5478 84.3157 22.7453 84.3157 21.9429C84.3157 21.1449 84.31 20.347 84.3043 19.5492C84.2903 17.5996 84.2763 15.6507 84.3459 13.7047C84.3987 12.3541 83.8783 11.3827 82.9147 10.5514ZM73.2533 10.1391C73.6926 10.2101 74.1125 10.3702 74.4865 10.6094C75.4746 11.2315 75.9384 12.4327 75.9346 13.7048V27.0372C75.9346 27.3424 75.9332 27.6476 75.9317 27.9527C75.9288 28.5627 75.9258 29.1725 75.9346 29.7814C75.9554 31.0947 75.4067 32.0679 74.2904 32.8151C72.7764 33.8314 70.9097 33.3588 69.9066 31.7503C69.7514 31.5005 69.6944 31.2345 69.6383 30.9726L69.6382 30.9725C69.5798 30.6998 69.5224 30.4316 69.356 30.1905C68.5018 31.9745 66.8821 32.8394 65.1079 33.2728C64.8964 33.325 64.6849 33.4056 64.4705 33.4873C63.9717 33.6772 63.4579 33.8729 62.8961 33.7305C62.3877 33.6024 61.8727 33.5066 61.3575 33.4109C60.4684 33.2456 59.5787 33.0803 58.7215 32.7479C57.6044 32.3116 56.7817 31.5533 55.9396 30.777L55.9395 30.777L55.9386 30.7761C55.8471 30.6918 55.7555 30.6073 55.6632 30.523C54.2339 29.2154 53.1592 27.7116 52.7632 25.8174C52.5563 24.829 52.3623 24.2028 52.2127 23.7199C51.851 22.5526 51.7487 22.2224 52.3503 19.6378C52.3714 19.5467 52.3922 19.4283 52.4173 19.285C52.5285 18.6494 52.7257 17.5229 53.4288 16.1053C54.4187 14.1102 56.7379 12.0553 56.7379 12.0553C57.0825 11.8759 57.4231 11.6773 57.7656 11.4776L57.7657 11.4775C59.0785 10.712 60.419 9.9303 62.1117 10.1555C62.5095 10.209 62.9157 10.1952 63.323 10.1813L63.3231 10.1813C63.5838 10.1724 63.845 10.1635 64.1047 10.1723C66.4409 10.2508 68.1643 11.3324 69.3956 13.2658C69.5668 13.053 69.6172 12.7851 69.6701 12.5034L69.6702 12.5033C69.7158 12.2609 69.7633 12.0081 69.8915 11.7714C70.104 11.3838 70.3951 11.0439 70.7464 10.773C71.0977 10.5021 71.5017 10.3059 71.933 10.1968C72.3644 10.0878 72.8139 10.0681 73.2533 10.1391ZM68.3566 26.3927C69.0222 25.5297 69.7199 24.5826 69.5445 23.3534H69.5426C69.5303 23.2686 69.5384 22.8343 69.5491 22.2675C69.5709 21.1099 69.6031 19.3997 69.4917 18.9858C68.8771 16.7442 66.1864 14.8742 63.7182 14.8574C62.9957 14.8484 62.2791 14.9876 61.6136 15.2664C60.948 15.5451 60.3479 15.9573 59.851 16.477C58.6914 17.7025 57.6675 19.2343 57.9371 21.164C57.9922 21.5687 57.9781 21.9742 57.9641 22.3799V22.3799V22.38C57.9555 22.6278 57.947 22.8757 57.9541 23.1236C57.9796 23.8682 58.1592 24.5997 58.482 25.2726C58.8047 25.9455 59.2636 26.5455 59.8302 27.0353C61.3141 28.3393 62.881 29.1481 65.5755 28.2832C66.6802 27.9586 67.6534 27.297 68.3566 26.3927ZM35.0785 14.2035C34.0528 13.1649 33.0158 12.1785 31.6261 11.5247C31.4087 11.4226 31.1939 11.3171 30.98 11.212L30.9799 11.212C29.7895 10.6275 28.6276 10.057 27.2083 10.1535C26.6019 10.1946 25.9928 10.1855 25.3838 10.1765C24.9948 10.1707 24.6059 10.1649 24.2178 10.1722C23.8424 10.1917 23.4711 10.2589 23.1129 10.3721C22.1054 10.6607 21.1948 11.1281 20.2848 11.5952L20.2847 11.5953C20.052 11.7148 19.8193 11.8342 19.585 11.9506C17.9088 12.7819 16.6115 14.1419 15.6612 15.6195C14.6487 17.1924 14.264 19.1352 14.0265 21.0089C13.8775 22.1876 14.0566 23.3757 14.3489 24.5769C14.8203 26.5567 15.7724 28.3926 17.1225 29.9252C19.4285 32.5704 22.634 33.2391 25.8903 33.7062C26.4915 33.7925 27.1034 33.6707 27.7125 33.5495C27.986 33.495 28.2589 33.4407 28.5301 33.4054C30.4156 33.1719 31.9938 32.4714 33.489 31.386C33.8491 31.1232 34.1456 30.7844 34.3573 30.3942C34.5689 30.0039 34.6903 29.5719 34.7128 29.1294C34.7599 28.5279 34.3866 27.7377 33.6983 27.4743C33.5835 27.4307 33.4708 27.3751 33.3571 27.3191C32.911 27.0991 32.4494 26.8715 31.7807 27.3286C31.3406 27.6287 30.7502 27.7861 30.1598 27.9436L30.1597 27.9437C29.8902 28.0156 29.6206 28.0875 29.3654 28.1729C27.6684 28.7334 25.9054 28.8996 24.1254 28.2477C22.3945 27.6125 21.3084 26.346 20.4015 24.8851C20.1055 24.4069 20.4939 23.9175 21.0973 23.9156C22.4051 23.9095 23.713 23.9114 25.1117 23.9134H25.1121L25.1152 23.9134C25.8489 23.9145 26.6076 23.9156 27.4044 23.9156C28.1479 23.8825 28.925 23.8924 29.7243 23.9026C31.4509 23.9247 33.2813 23.948 35.1012 23.542C36.2778 23.2805 37.0188 22.8228 37.1394 21.644C37.1828 21.2106 37.1979 19.52 37.1772 19.0287C37.1263 17.2136 36.3753 15.4868 35.0785 14.2035ZM27.5537 19.9747H27.5536H27.5536C27.0971 19.9771 26.6407 19.9796 26.1844 19.9796C25.6741 19.9796 25.1637 19.981 24.6534 19.9825C23.6327 19.9854 22.612 19.9883 21.5913 19.9796C20.6485 19.9684 20.6485 19.7928 20.7673 18.8233C21.101 16.2472 25.1568 13.8168 27.7589 15.2496C30.2478 15.4831 30.9643 17.3512 31.5658 19.2884C31.6846 19.6844 31.5884 20.0151 30.9718 19.9983L30.9756 19.9945C29.8362 19.9625 28.6949 19.9686 27.5537 19.9747ZM100.365 12.3783C102.52 10.5564 105.261 9.55569 108.095 9.55576C110.927 9.55704 113.667 10.5584 115.821 12.38C117.976 14.2017 119.405 16.7245 119.851 19.4957C120.298 22.2669 119.733 25.105 118.258 27.5009C116.783 29.8967 114.495 31.6934 111.803 32.5685L111.781 32.5797C110.965 32.8761 110.733 33.1022 110.36 33.4668C110.286 33.5388 110.206 33.6162 110.116 33.7005C109.567 34.2124 108.095 36.0001 108.095 36.0001C108.095 36.0001 106.62 34.2049 106.071 33.7005C105.977 33.6136 105.895 33.5341 105.818 33.4603C105.45 33.1054 105.216 32.8797 104.407 32.5797L104.386 32.5704C101.693 31.6963 99.4031 29.8998 97.9271 27.5035C96.451 25.1072 95.8856 22.268 96.3323 19.4958C96.7791 16.7237 98.2087 14.2001 100.365 12.3783ZM104.605 26.5302C105.638 27.2139 106.852 27.5789 108.095 27.5789C109.76 27.5789 111.358 26.9233 112.536 25.7563C113.714 24.5894 114.375 23.0067 114.375 21.3563C114.375 20.1256 114.007 18.9226 113.317 17.8993C112.627 16.876 111.646 16.0784 110.498 15.6075C109.351 15.1365 108.088 15.0133 106.869 15.2534C105.651 15.4935 104.532 16.0861 103.653 16.9563C102.775 17.8266 102.177 18.9353 101.935 20.1424C101.692 21.3494 101.817 22.6006 102.292 23.7376C102.767 24.8746 103.572 25.8465 104.605 26.5302Z" fill="#EB7645"/>
<path fill-rule="evenodd" clip-rule="evenodd" d="M85.3894 3.3489C85.7225 3.51017 86.0162 3.74122 86.2502 4.02605C86.471 4.27681 86.7209 4.27903 86.9878 4.28141C87.0331 4.28181 87.0789 4.28222 87.1251 4.28384V10.5437C86.6184 10.6832 86.3471 10.3986 86.0759 10.1143C85.9474 9.97955 85.819 9.8449 85.6657 9.75542C83.98 8.77094 82.3245 7.7379 80.7312 6.61706C80.9673 6.59567 81.204 6.60206 81.4408 6.60846C81.8452 6.61939 82.2502 6.63033 82.6545 6.50311C83.5615 6.22172 83.6372 5.46959 83.7179 4.66844C83.7534 4.31544 83.7899 3.95292 83.8989 3.61695C83.9611 3.41147 83.75 2.66984 83.6161 2.40271C83.8695 2.40815 84.4496 2.77301 84.8976 3.05484C85.105 3.18525 85.284 3.29788 85.3894 3.3489ZM93.1138 14.878C93.8522 15.1514 94.4811 15.6034 95.1098 16.0553C95.7397 16.508 96.3694 16.9606 97.1092 17.2336C97.1296 17.1416 97.1342 17.0512 97.139 16.9597V16.9597C97.1465 16.8135 97.1542 16.6645 97.2261 16.5013C97.8507 15.1299 98.8599 14.0595 99.871 12.9871C100.017 12.8325 100.162 12.6779 100.307 12.5224L93.1138 8.20712V14.878ZM109.919 18.9355C109.58 18.5996 109.106 18.23 108.651 17.8764L108.651 17.8764C108.348 17.6402 108.054 17.4111 107.815 17.2038C107.218 16.832 106.706 16.4831 106.149 16.1034L106.149 16.1034C105.941 15.9623 105.728 15.8169 105.501 15.6645C105.442 15.6645 105.373 15.6563 105.305 15.648C105.157 15.63 105.007 15.6119 104.936 15.6757C103.427 16.9329 102.141 18.3265 101.919 20.3758L105.517 22.7333C105.858 22.4213 105.807 22.0159 105.748 21.6367C105.503 20.1224 106.824 19.8274 108.138 19.5338C108.801 19.3859 109.461 19.2384 109.919 18.9355Z" fill="#F58020"/>
<path d="M110.939 22.5228C111.59 20.9663 110.844 19.1818 109.273 18.537C107.702 17.8923 105.9 18.6315 105.25 20.188C104.599 21.7445 105.345 23.529 106.916 24.1737C108.487 24.8185 110.288 24.0793 110.939 22.5228Z" fill="#D62B28"/>
<path d="M84.1815 5.21884C84.8322 3.66231 84.0862 1.87783 82.5151 1.2331C80.944 0.588362 79.1428 1.32751 78.492 2.88404C77.8413 4.44057 78.5873 6.22505 80.1584 6.86979C81.7295 7.51453 83.5307 6.77537 84.1815 5.21884Z" fill="#D62B28"/>
</svg>
